# Made in Blockbench 5.1.5
mtllib drill.mtl

o cone
v 8.120857502457507e-19 0 -1.4163910886823037e-18
v 8.120857502457507e-19 1.25 -1.4163910886823037e-18
v 0.5004005348087907 0 0.13247074089850547
v 0.4995949456609847 0 -0.1354772405281433
v 0.3649232942806473 0 -0.3671242047624793
v 0.13247074089850544 0 -0.5004005348087908
v -0.13547724052814336 0 -0.4995949456609847
v -0.3671242047624791 0 -0.36492329428064735
v -0.5004005348087905 0 -0.13247074089850566
v -0.4995949456609848 0 0.1354772405281434
v -0.3649232942806472 0 0.3671242047624792
v -0.1324707408985057 0 0.5004005348087905
v 0.13547724052814328 0 0.4995949456609847
v 0.36712420476247926 0 0.3649232942806472
vt 0.90400625 0.46650625
vt 0.84599375 0.5
vt 0.8125 0.375
vt 0.47880625 0.3040515625
vt 0.544480002311708 0.3172532068502476
vt 0.4453125 0.640625
vt 0.9375 0.40849375
vt 0.90400625 0.46650625
vt 0.8125 0.375
vt 0.17426999768829193 0.1453782068502476
vt 0.23994375 0.13217656249999998
vt 0.2734375 0.46875
vt 0.9375 0.34150625
vt 0.9375 0.40849375
vt 0.8125 0.375
vt 0.23994375 0.13217656249999998
vt 0.30693125 0.13217656249999998
vt 0.2734375 0.46875
vt 0.90400625 0.28349375
vt 0.9375 0.34150625
vt 0.8125 0.375
vt 0.30693125 0.13217656249999998
vt 0.37260500231170807 0.1453782068502476
vt 0.2734375 0.46875
vt 0.84599375 0.25
vt 0.90400625 0.28349375
vt 0.8125 0.375
vt 0.518019997688292 0.5047532068502476
vt 0.58369375 0.4915515625
vt 0.6171875 0.828125
vt 0.77900625 0.25
vt 0.84599375 0.25
vt 0.8125 0.375
vt 0.58369375 0.4915515625
vt 0.65068125 0.4915515625
vt 0.6171875 0.828125
vt 0.72099375 0.28349375
vt 0.77900625 0.25
vt 0.8125 0.375
vt 0.65068125 0.4915515625
vt 0.716355002311708 0.5047532068502476
vt 0.6171875 0.828125
vt 0.6875 0.34150625
vt 0.72099375 0.28349375
vt 0.8125 0.375
vt 0.518019997688292 0.1453782068502476
vt 0.58369375 0.13217656249999998
vt 0.6171875 0.46875
vt 0.6875 0.40849375
vt 0.6875 0.34150625
vt 0.8125 0.375
vt 0.58369375 0.13217656249999998
vt 0.65068125 0.13217656249999998
vt 0.6171875 0.46875
vt 0.72099375 0.46650625
vt 0.6875 0.40849375
vt 0.8125 0.375
vt 0.65068125 0.13217656249999998
vt 0.716355002311708 0.1453782068502476
vt 0.6171875 0.46875
vt 0.77900625 0.5
vt 0.72099375 0.46650625
vt 0.8125 0.375
vt 0.34614499768829193 0.3172532068502476
vt 0.41181875 0.3040515625
vt 0.4453125 0.640625
vt 0.84599375 0.5
vt 0.77900625 0.5
vt 0.8125 0.375
vt 0.41181875 0.3040515625
vt 0.47880625 0.3040515625
vt 0.4453125 0.640625
vn 0 -1 0
vn 0.9284724946067922 0.37139067635410367 -0.002791464827273882
vn 0 -1 0
vn 0.8026850346309553 0.3713906763541037 -0.46665372675758576
vn 0 -1 0
vn 0.4618187678492061 0.3713906763541037 -0.8054764994582293
vn 0 -1 0
vn -0.002791464827274104 0.3713906763541037 -0.928472494606792
vn 0 -1 0
vn -0.466653726757586 0.37139067635410383 -0.8026850346309552
vn 0 -1 0
vn -0.805476499458229 0.3713906763541038 -0.4618187678492064
vn 0 -1 0
vn -0.9284724946067923 0.3713906763541037 0.0027914648272733826
vn 0 -1 0
vn -0.8026850346309549 0.3713906763541037 0.46665372675758665
vn 0 -1 0
vn -0.46181876784920645 0.3713906763541038 0.8054764994582291
vn 0 -1 0
vn 0.002791464827273549 0.37139067635410367 0.9284724946067923
vn 0 -1 0
vn 0.4666537267575861 0.3713906763541037 0.8026850346309551
vn 0 -1 0
vn 0.8054764994582292 0.37139067635410367 0.46181876784920606
usemtl m_d4ee5927-d928-50c0-5e63-273bc3dd5b20
f 4/1/1 3/2/1 1/3/1
f 3/4/2 4/5/2 2/6/2
f 5/7/3 4/8/3 1/9/3
f 4/10/4 5/11/4 2/12/4
f 6/13/5 5/14/5 1/15/5
f 5/16/6 6/17/6 2/18/6
f 7/19/7 6/20/7 1/21/7
f 6/22/8 7/23/8 2/24/8
f 8/25/9 7/26/9 1/27/9
f 7/28/10 8/29/10 2/30/10
f 9/31/11 8/32/11 1/33/11
f 8/34/12 9/35/12 2/36/12
f 10/37/13 9/38/13 1/39/13
f 9/40/14 10/41/14 2/42/14
f 11/43/15 10/44/15 1/45/15
f 10/46/16 11/47/16 2/48/16
f 12/49/17 11/50/17 1/51/17
f 11/52/18 12/53/18 2/54/18
f 13/55/19 12/56/19 1/57/19
f 12/58/20 13/59/20 2/60/20
f 14/61/21 13/62/21 1/63/21
f 13/64/22 14/65/22 2/66/22
f 3/67/23 14/68/23 1/69/23
f 14/70/24 3/71/24 2/72/24
o cone
v 1.1463502901568643e-17 0 3.141879706658275e-18
v -2.815673649132838e-17 1.25 -2.074223764427138e-18
v -0.5176380902050415 0 1.1102230246251565e-16
v -0.44828773608402667 0 0.25881904510252074
v -0.25881904510252063 0 0.44828773608402683
v 1.3877787807814457e-16 0 0.5176380902050415
v 0.25881904510252085 0 0.44828773608402667
v 0.44828773608402667 0 0.25881904510252074
v 0.5176380902050415 0 8.326672684688674e-17
v 0.4482877360840268 0 -0.25881904510252085
v 0.2588190451025205 0 -0.4482877360840267
v 1.1102230246251565e-16 0 -0.5176380902050415
v -0.25881904510252074 0 -0.4482877360840267
v -0.4482877360840268 0 -0.2588190451025205
vt 0.87275625 0.96650625
vt 0.81474375 1
vt 0.78125 0.875
vt 0.90625 0.90849375
vt 0.87275625 0.96650625
vt 0.78125 0.875
vt 0.90625 0.84150625
vt 0.90625 0.90849375
vt 0.78125 0.875
vt 0.87275625 0.78349375
vt 0.90625 0.84150625
vt 0.78125 0.875
vt 0.47880625 0.6634265625
vt 0.544480002311708 0.6766282068502476
vt 0.4453125 1
vt 0.81474375 0.75
vt 0.87275625 0.78349375
vt 0.78125 0.875
vt 0.17426999768829193 0.5047532068502476
vt 0.23994375 0.4915515625
vt 0.2734375 0.828125
vt 0.74775625 0.75
vt 0.81474375 0.75
vt 0.78125 0.875
vt 0.68974375 0.78349375
vt 0.74775625 0.75
vt 0.78125 0.875
vt 0.65625 0.84150625
vt 0.68974375 0.78349375
vt 0.78125 0.875
vt 0.002394997688291947 0.3172532068502476
vt 0.06806875 0.3040515625
vt 0.1015625 0.640625
vt 0.65625 0.90849375
vt 0.65625 0.84150625
vt 0.78125 0.875
vt 0.06806875 0.3040515625
vt 0.13505625 0.3040515625
vt 0.1015625 0.640625
vt 0.68974375 0.96650625
vt 0.65625 0.90849375
vt 0.78125 0.875
vt 0.74775625 1
vt 0.68974375 0.96650625
vt 0.78125 0.875
vt 0.81474375 1
vt 0.74775625 1
vt 0.78125 0.875
vt 0.13505625 0.6634265625
vt 0.20073000231170807 0.6766282068502476
vt 0.1015625 1
vt 0.34614499768829193 0.6766282068502476
vt 0.41181875 0.6634265625
vt 0.4453125 1
vt 0.41181875 0.6634265625
vt 0.47880625 0.6634265625
vt 0.4453125 1
vt 0.23994375 0.4915515625
vt 0.30693125 0.4915515625
vt 0.2734375 0.828125
vt 0.30693125 0.4915515625
vt 0.37260500231170807 0.5047532068502476
vt 0.2734375 0.828125
vt 0.13505625 0.3040515625
vt 0.20073000231170807 0.3172532068502476
vt 0.1015625 0.640625
vt 0.002394997688291947 0.6766282068502476
vt 0.06806875 0.6634265625
vt 0.1015625 1
vt 0.06806875 0.6634265625
vt 0.13505625 0.6634265625
vt 0.1015625 1
vn 3.1696191514317606e-17 -1 4.1728827768683335e-18
vn 3.1696191514317606e-17 -1 4.1728827768683335e-18
vn 3.1696191514317606e-17 -1 4.1728827768683335e-18
vn 3.1696191514317606e-17 -1 4.1728827768683335e-18
vn 0.2403074505348715 0.3713906763541037 0.8968396148334838
vn 3.1696191514317606e-17 -1 4.1728827768683335e-18
vn 0.6565321642986128 0.37139067635410383 0.6565321642986127
vn 3.1696191514317606e-17 -1 4.1728827768683335e-18
vn 3.1696191514317606e-17 -1 4.1728827768683335e-18
vn 3.1696191514317606e-17 -1 4.1728827768683335e-18
vn 0.6565321642986122 0.3713906763541037 -0.6565321642986134
vn 3.1696191514317606e-17 -1 4.1728827768683335e-18
vn 0.24030745053487135 0.3713906763541038 -0.8968396148334841
vn 3.1696191514317606e-17 -1 4.1728827768683335e-18
vn 3.1696191514317606e-17 -1 4.1728827768683335e-18
vn 3.1696191514317606e-17 -1 4.1728827768683335e-18
vn -0.896839614833484 0.37139067635410367 0.2403074505348713
vn -0.6565321642986128 0.3713906763541037 0.6565321642986127
vn -0.240307450534871 0.3713906763541037 0.8968396148334842
vn 0.896839614833484 0.37139067635410383 0.24030745053487132
vn 0.8968396148334842 0.3713906763541037 -0.2403074505348708
vn -0.240307450534871 0.37139067635410367 -0.8968396148334842
vn -0.656532164298613 0.3713906763541037 -0.6565321642986126
vn -0.8968396148334841 0.3713906763541036 -0.24030745053487096
usemtl m_d4ee5927-d928-50c0-5e63-273bc3dd5b20
f 18/73/25 17/74/25 15/75/25
f 19/76/26 18/77/26 15/78/26
f 20/79/27 19/80/27 15/81/27
f 21/82/28 20/83/28 15/84/28
f 20/85/29 21/86/29 16/87/29
f 22/88/30 21/89/30 15/90/30
f 21/91/31 22/92/31 16/93/31
f 23/94/32 22/95/32 15/96/32
f 24/97/33 23/98/33 15/99/33
f 25/100/34 24/101/34 15/102/34
f 24/103/35 25/104/35 16/105/35
f 26/106/36 25/107/36 15/108/36
f 25/109/37 26/110/37 16/111/37
f 27/112/38 26/113/38 15/114/38
f 28/115/39 27/116/39 15/117/39
f 17/118/40 28/119/40 15/120/40
f 17/121/41 18/122/41 16/123/41
f 18/124/42 19/125/42 16/126/42
f 19/127/43 20/128/43 16/129/43
f 22/130/44 23/131/44 16/132/44
f 23/133/45 24/134/45 16/135/45
f 26/136/46 27/137/46 16/138/46
f 27/139/47 28/140/47 16/141/47
f 28/142/48 17/143/48 16/144/48